# xmcd
#
# Track frame offsets: 
#        183
#        25510
#        46693
#        66005
#        80320
#        90960
#        105000
#        122558
#        138828
#        161005
#        182200
#        202178
#        218280
#        250013
#        274555
#        286768
#        301278
#        322023
#
# Disc length: 4594 seconds
#
# Revision: 8
# Processed by: cddbd v1.5.2PL0 Copyright (c) Steve Scherf et al.
# Submitted via: ExactAudioCopyFreeDBPlugin 1.0
#
DISCID=dc11f012
DTITLE=Various Artist - Still Got The Blues
DYEAR=1992
DGENRE=Blues
TTITLE0=John Lee Hooker with Carlos Santana - The Healer
TTITLE1=Tony Joe White - Undercover Agent of The Blues
TTITLE2=Robert Cray Band - Right Next Door (Because of Me)
TTITLE3=The Robert Cray Band - Love me Like a Man
TTITLE4=J.J. Cale - Crazy Mama
TTITLE5=Muddy Waters - You're Gonna Need my Help
TTITLE6=Fleetwood Mac - Need Your Love so Bad
TTITLE7=Brendan Croker - No Money at All
TTITLE8=Vaughan Brothers - Tick Tock
TTITLE9=Muskee - Window of my Eyes '91
TTITLE10=Buddy Guy - Damn Right, I've Got The Blues
TTITLE11=Chris Whitley - Big Sky Country
TTITLE12=Walter Trout band - Say Goodbye To The Blues
TTITLE13=Blues Brothers - Shot Gun Blues
TTITLE14=John Lee Hooker - I 'm In The Mood
TTITLE15=Chicken Shack - I 'd Rather Go Blind
TTITLE16=Stevie Ray Vaughan - The Sky Is Crying
TTITLE17=Big John´s Blues Fantasy - Still Got The Blues (For You)
EXTD=
EXTT0=
EXTT1=
EXTT2=
EXTT3=
EXTT4=
EXTT5=
EXTT6=
EXTT7=
EXTT8=
EXTT9=
EXTT10=
EXTT11=
EXTT12=
EXTT13=
EXTT14=
EXTT15=
EXTT16=
EXTT17=
PLAYORDER=
